<svg  xmlns="http://www.w3.org/2000/svg"  xmlns:xlink="http://www.w3.org/1999/xlink" style="display: none;">
  <defs>
    <symbol id="logo" viewBox="0 0 55 55">
      <title>Logo</title>
      <path d="M27.948,3.089C27.951,3.058,27.966,3.032,27.966,3V1c0-0.552-0.447-1-1-1s-1,0.448-1,1v2c0,0.044,0.02,0.082,0.025,0.125
        C13.645,3.841,3.525,13.49,2.158,26.134c-0.04,0.369,0.128,0.73,0.437,0.938c0.309,0.207,0.706,0.226,1.032,0.05
        c1.503-0.81,3.69-1.275,6.002-1.275c4.387,0,7.664,1.665,7.664,3.154c0,0.552,0.447,1,1,1s1-0.448,1-1
        c0-1.374,2.795-2.895,6.673-3.122v26.196h0.01C26.028,53.72,27.757,55,29.966,55c2.243,0,4-1.318,4-3c0-0.552-0.447-1-1-1
        s-1,0.448-1,1c0,0.408-0.779,1-2,1s-2-0.592-2-1V25.879C31.835,26.11,34.62,27.628,34.62,29c0,0.552,0.447,1,1,1s1-0.448,1-1
        c0-1.489,3.277-3.154,7.663-3.154c2.861,0,5.575,0.741,6.914,1.887c0.308,0.263,0.742,0.315,1.104,0.131s0.575-0.566,0.544-0.97
        C51.803,13.703,40.913,3.341,27.948,3.089z M9.629,23.846c-1.902,0-3.702,0.273-5.235,0.783C6.234,14.408,14.347,6.657,24.36,5.308
        c-4.535,4.53-7.295,12.011-7.385,20.281C15.231,24.511,12.637,23.846,9.629,23.846z M26.956,23.846
        c-3.402,0-6.287,0.845-7.996,2.184c0-0.01,0.006-0.019,0.006-0.03c0-8.499,3.122-16.366,8-20.34c4.878,3.975,8,11.842,8,20.34
        c0,0.017,0.009,0.031,0.01,0.048C33.269,24.7,30.374,23.846,26.956,23.846z M44.283,23.846c-2.997,0-5.583,0.66-7.327,1.731
        c-0.093-8.354-2.914-15.896-7.534-20.408c10.616,0.915,19.43,9.183,21.186,19.881C48.895,24.28,46.673,23.846,44.283,23.846z"/>
      </symbol>

    <symbol id="menu" viewBox="0 0 100 100">
      <title>Menu</title>
      	<rect y="18" width="100" height="7"/>
      	<rect y="46.5" width="100" height="7"/>
      	<rect y="75" width="100" height="7"/>
		</symbol>

    <symbol id="favorites" viewBox="0 0 129 129">
      <title>Add to favorites</title>
      <path d="m121.6,40.1c-3.3-16.6-15.1-27.3-30.3-27.3-8.5,0-17.7,3.5-26.7,10.1-9.1-6.8-18.3-10.3-26.9-10.3-15.2,0-27.1,10.8-30.3,27.6-4.8,24.9 10.6,58 55.7,76 0.5,0.2 1,0.3 1.5,0.3 0.5,0 1-0.1 1.5-0.3 45-18.4 60.3-51.4 55.5-76.1zm-57,67.9c-39.6-16.4-53.3-45-49.2-66.3 2.4-12.7 11.2-21 22.3-21 7.5,0 15.9,3.6 24.3,10.5 1.5,1.2 3.6,1.2 5.1,0 8.4-6.7 16.7-10.2 24.2-10.2 11.1,0 19.8,8.1 22.3,20.7 4.1,21.1-9.5,49.6-49,66.3z"/>
    </symbol>

    <symbol id="close" viewBox="0 0 64 64">
      <title>Close</title>
      <path d="M28.941,31.786L0.613,60.114c-0.787,0.787-0.787,2.062,0,2.849c0.393,0.394,0.909,0.59,1.424,0.59   c0.516,0,1.031-0.196,1.424-0.59l28.541-28.541l28.541,28.541c0.394,0.394,0.909,0.59,1.424,0.59c0.515,0,1.031-0.196,1.424-0.59   c0.787-0.787,0.787-2.062,0-2.849L35.064,31.786L63.41,3.438c0.787-0.787,0.787-2.062,0-2.849c-0.787-0.786-2.062-0.786-2.848,0   L32.003,29.15L3.441,0.59c-0.787-0.786-2.061-0.786-2.848,0c-0.787,0.787-0.787,2.062,0,2.849L28.941,31.786z"/>
    </symbol>

    <symbol id="twitter" viewBox="0 0 612 612">
      <title>Twtter</title>
      <path d="M612,116.258c-22.525,9.981-46.694,16.75-72.088,19.772c25.929-15.527,45.777-40.155,55.184-69.411
        c-24.322,14.379-51.169,24.82-79.775,30.48c-22.907-24.437-55.49-39.658-91.63-39.658c-69.334,0-125.551,56.217-125.551,125.513
        c0,9.828,1.109,19.427,3.251,28.606C197.065,206.32,104.556,156.337,42.641,80.386c-10.823,18.51-16.98,40.078-16.98,63.101
        c0,43.559,22.181,81.993,55.835,104.479c-20.575-0.688-39.926-6.348-56.867-15.756v1.568c0,60.806,43.291,111.554,100.693,123.104
        c-10.517,2.83-21.607,4.398-33.08,4.398c-8.107,0-15.947-0.803-23.634-2.333c15.985,49.907,62.336,86.199,117.253,87.194
        c-42.947,33.654-97.099,53.655-155.916,53.655c-10.134,0-20.116-0.612-29.944-1.721c55.567,35.681,121.536,56.485,192.438,56.485
        c230.948,0,357.188-191.291,357.188-357.188l-0.421-16.253C573.872,163.526,595.211,141.422,612,116.258z"/>
    </symbol>

    <symbol id="facebook" viewBox="0 0 96.124 96.123">
      <title>Facebook</title>
    	<path d="M72.089,0.02L59.624,0C45.62,0,36.57,9.285,36.57,23.656v10.907H24.037c-1.083,0-1.96,0.878-1.96,1.961v15.803
    		c0,1.083,0.878,1.96,1.96,1.96h12.533v39.876c0,1.083,0.877,1.96,1.96,1.96h16.352c1.083,0,1.96-0.878,1.96-1.96V54.287h14.654
    		c1.083,0,1.96-0.877,1.96-1.96l0.006-15.803c0-0.52-0.207-1.018-0.574-1.386c-0.367-0.368-0.867-0.575-1.387-0.575H56.842v-9.246
    		c0-4.444,1.059-6.7,6.848-6.7l8.397-0.003c1.082,0,1.959-0.878,1.959-1.96V1.98C74.046,0.899,73.17,0.022,72.089,0.02z"/>
    </symbol>

    <symbol id="google" viewBox="0 0 458.246 458.246">
      <title>Google +</title>
      	<path d="M160.777,259.368h71.594c-12.567,35.53-46.603,61.004-86.45,60.71
      		c-48.349-0.357-88.327-39.035-90.204-87.349c-2.012-51.789,39.537-94.563,90.887-94.563c23.479,0,44.905,8.946,61.058,23.605
      		c3.826,3.473,9.65,3.495,13.413-0.047l26.296-24.749c4.112-3.871,4.127-10.408,0.027-14.292
      		c-25.617-24.269-59.981-39.396-97.876-40.136C68.696,80.969,0.567,147.238,0.004,228.078
      		c-0.568,81.447,65.285,147.649,146.6,147.649c78.199,0,142.081-61.229,146.36-138.358c0.114-0.967,0.189-33.648,0.189-33.648
      		H160.777c-5.426,0-9.824,4.398-9.824,9.824v35.999C150.953,254.97,155.352,259.368,160.777,259.368z"/>
      	<path d="M414.464,206.99v-35.173c0-4.755-3.854-8.609-8.609-8.609h-29.604c-4.755,0-8.609,3.854-8.609,8.609
      		v35.173h-35.173c-4.755,0-8.609,3.854-8.609,8.609v29.604c0,4.755,3.854,8.609,8.609,8.609h35.173v35.173
      		c0,4.755,3.854,8.609,8.609,8.609h29.604c4.755,0,8.609-3.854,8.609-8.609v-35.173h35.173c4.755,0,8.609-3.854,8.609-8.609v-29.604
      		c0-4.755-3.854-8.609-8.609-8.609L414.464,206.99L414.464,206.99z"/>
    </symbol>

    <symbol id="geo" viewBox="0 0 100 100">
      <title>access location</title>
    	<polygon points="100,5.9 0,44.8 52.2,44.9 52.2,94"/>
    </symbol>

    <symbol id="search" viewBox="0 0 250.313 250.313">
      <title>search</title>
    	<path d="M244.186,214.604l-54.379-54.378c-0.289-0.289-0.628-0.491-0.93-0.76
    		c10.7-16.231,16.945-35.66,16.945-56.554C205.822,46.075,159.747,0,102.911,0S0,46.075,0,102.911
    		c0,56.835,46.074,102.911,102.91,102.911c20.895,0,40.323-6.245,56.554-16.945c0.269,0.301,0.47,0.64,0.759,0.929l54.38,54.38
    		c8.169,8.168,21.413,8.168,29.583,0C252.354,236.017,252.354,222.773,244.186,214.604z M102.911,170.146
    		c-37.134,0-67.236-30.102-67.236-67.235c0-37.134,30.103-67.236,67.236-67.236c37.132,0,67.235,30.103,67.235,67.236
    		C170.146,140.044,140.043,170.146,102.911,170.146z"/>
    </symbol>

  </defs>
</svg>
